HIERARCHY
ROOT reference
{
  OFFSET -65.3212 -1.93545 -120.338
  CHANNELS 6 Xposition Yposition Zposition Zrotation Xrotation Yrotation
  JOINT Hips
  {
    OFFSET 0 78.7191 0
    CHANNELS 3 Zrotation Xrotation Yrotation
    JOINT Chest
    {
      OFFSET 0 8.7983 -4.7612
      CHANNELS 3 Zrotation Xrotation Yrotation
      JOINT Chest2
      {
        OFFSET 0 8.0291 0.4195
        CHANNELS 3 Zrotation Xrotation Yrotation
        JOINT Chest3
        {
          OFFSET 0 9.9351 -2.2114
          CHANNELS 3 Zrotation Xrotation Yrotation
          JOINT Neck
          {
            OFFSET 0 22.3885 -0.4656
            CHANNELS 3 Zrotation Xrotation Yrotation
            JOINT Head
            {
              OFFSET -0.0001 12.643 3.4389
              CHANNELS 3 Zrotation Xrotation Yrotation
              End Site
              {
                OFFSET 0.0001 17.6655 0.5274
              }
            }
          }
          JOINT LeftCollar
          {
            OFFSET 2.2603 21.606 7.4023
            CHANNELS 3 Zrotation Xrotation Yrotation
            JOINT LeftShoulder
            {
              OFFSET 13.5163 -1.1332 -5.0146
              CHANNELS 3 Zrotation Xrotation Yrotation
              JOINT LeftElbow
              {
                OFFSET -0.0995 -28.05 -0.2431
                CHANNELS 3 Zrotation Xrotation Yrotation
                JOINT LeftWrist
                {
                  OFFSET 0.0679 -23.3996 -0.1402
                  CHANNELS 3 Zrotation Xrotation Yrotation
                  JOINT LeftFinger1
                  {
                    OFFSET 0.7932 -9.069 2.5189
                    CHANNELS 3 Zrotation Xrotation Yrotation
                    JOINT LeftFinger11
                    {
                      OFFSET -0.8272 -3.3923 0.5977
                      CHANNELS 3 Zrotation Xrotation Yrotation
                      JOINT LeftFinger12
                      {
                        OFFSET -0.5649 -2.3158 0.4082
                        CHANNELS 3 Zrotation Xrotation Yrotation
                        End Site
                        {
                          OFFSET -0.4919 -1.6479 0.2673
                        }
                      }
                    }
                  }
                  JOINT LeftFinger2
                  {
                    OFFSET 0.9159 -9.2044 0.2193
                    CHANNELS 3 Zrotation Xrotation Yrotation
                    JOINT LeftFinger21
                    {
                      OFFSET 0.0117 -4.1944 -0.0248
                      CHANNELS 3 Zrotation Xrotation Yrotation
                      JOINT LeftFinger22
                      {
                        OFFSET 0.0071 -2.3249 -0.0142
                        CHANNELS 3 Zrotation Xrotation Yrotation
                        End Site
                        {
                          OFFSET -0.1475 -2.0882 0.0028
                        }
                      }
                    }
                  }
                  JOINT LeftFinger3
                  {
                    OFFSET 0.6113 -8.7231 -2.0637
                    CHANNELS 3 Zrotation Xrotation Yrotation
                    JOINT LeftFinger31
                    {
                      OFFSET -0.1927 -3.8059 -0.2383
                      CHANNELS 3 Zrotation Xrotation Yrotation
                      JOINT LeftFinger32
                      {
                        OFFSET -0.1091 -2.1688 -0.1362
                        CHANNELS 3 Zrotation Xrotation Yrotation
                        End Site
                        {
                          OFFSET -0.2358 -1.9176 -0.0906
                        }
                      }
                    }
                  }
                  JOINT LeftFinger4
                  {
                    OFFSET -0.6151 -8.0947 -3.5641
                    CHANNELS 3 Zrotation Xrotation Yrotation
                    JOINT LeftFinger41
                    {
                      OFFSET -0.4882 -2.341 -0.6462
                      CHANNELS 3 Zrotation Xrotation Yrotation
                      JOINT LeftFinger42
                      {
                        OFFSET -0.3575 -1.7167 -0.4742
                        CHANNELS 3 Zrotation Xrotation Yrotation
                        End Site
                        {
                          OFFSET -0.4187 -1.5237 -0.3496
                        }
                      }
                    }
                  }
                  JOINT LeftFinger0
                  {
                    OFFSET -1.42 -1.8761 1.4223
                    CHANNELS 3 Zrotation Xrotation Yrotation
                    JOINT LeftFinger01
                    {
                      OFFSET -1.1471 -3.4929 2.6334
                      CHANNELS 3 Zrotation Xrotation Yrotation
                      JOINT LeftFinger02
                      {
                        OFFSET -0.823 -2.3 1.6571
                        CHANNELS 3 Zrotation Xrotation Yrotation
                        End Site
                        {
                          OFFSET -0.5822 -1.6914 1.1582
                        }
                      }
                    }
                  }
                }
              }
            }
          }
          JOINT RightCollar
          {
            OFFSET -2.2603 21.606 7.4023
            CHANNELS 3 Zrotation Xrotation Yrotation
            JOINT RightShoulder
            {
              OFFSET -13.5187 -1.1334 -5.0155
              CHANNELS 3 Zrotation Xrotation Yrotation
              JOINT RightElbow
              {
                OFFSET 0.0994 -28.0499 -0.2431
                CHANNELS 3 Zrotation Xrotation Yrotation
                JOINT RightWrist
                {
                  OFFSET -0.0679 -23.3996 -0.1402
                  CHANNELS 3 Zrotation Xrotation Yrotation
                  JOINT RightFinger1
                  {
                    OFFSET -0.7932 -9.0691 2.5189
                    CHANNELS 3 Zrotation Xrotation Yrotation
                    JOINT RightFinger11
                    {
                      OFFSET 0.8272 -3.3923 0.5977
                      CHANNELS 3 Zrotation Xrotation Yrotation
                      JOINT RightFinger12
                      {
                        OFFSET 0.565 -2.3158 0.4082
                        CHANNELS 3 Zrotation Xrotation Yrotation
                        End Site
                        {
                          OFFSET 0.4919 -1.6479 0.2673
                        }
                      }
                    }
                  }
                  JOINT RightFinger2
                  {
                    OFFSET -0.916 -9.2044 0.2193
                    CHANNELS 3 Zrotation Xrotation Yrotation
                    JOINT RightFinger21
                    {
                      OFFSET -0.0117 -4.1944 -0.0248
                      CHANNELS 3 Zrotation Xrotation Yrotation
                      JOINT RightFinger22
                      {
                        OFFSET -0.0071 -2.3249 -0.0142
                        CHANNELS 3 Zrotation Xrotation Yrotation
                        End Site
                        {
                          OFFSET 0.1475 -2.0882 0.0028
                        }
                      }
                    }
                  }
                  JOINT RightFinger3
                  {
                    OFFSET -0.6113 -8.7231 -2.0637
                    CHANNELS 3 Zrotation Xrotation Yrotation
                    JOINT RightFinger31
                    {
                      OFFSET 0.1927 -3.8059 -0.2383
                      CHANNELS 3 Zrotation Xrotation Yrotation
                      JOINT RightFinger32
                      {
                        OFFSET 0.1091 -2.1688 -0.1362
                        CHANNELS 3 Zrotation Xrotation Yrotation
                        End Site
                        {
                          OFFSET 0.2358 -1.9176 -0.0906
                        }
                      }
                    }
                  }
                  JOINT RightFinger4
                  {
                    OFFSET 0.6151 -8.0947 -3.564
                    CHANNELS 3 Zrotation Xrotation Yrotation
                    JOINT RightFinger41
                    {
                      OFFSET 0.4882 -2.341 -0.6462
                      CHANNELS 3 Zrotation Xrotation Yrotation
                      JOINT RightFinger42
                      {
                        OFFSET 0.3574 -1.7166 -0.4742
                        CHANNELS 3 Zrotation Xrotation Yrotation
                        End Site
                        {
                          OFFSET 0.4187 -1.5237 -0.3496
                        }
                      }
                    }
                  }
                  JOINT RightFinger0
                  {
                    OFFSET 1.4199 -1.8761 1.4221
                    CHANNELS 3 Zrotation Xrotation Yrotation
                    JOINT RightFinger01
                    {
                      OFFSET 1.1472 -3.4929 2.6336
                      CHANNELS 3 Zrotation Xrotation Yrotation
                      JOINT RightFinger02
                      {
                        OFFSET 0.8229 -2.3 1.6571
                        CHANNELS 3 Zrotation Xrotation Yrotation
                        End Site
                        {
                          OFFSET 0.5822 -1.6914 1.1582
                        }
                      }
                    }
                  }
                }
              }
            }
          }
        }
      }
    }
    JOINT RightHip
    {
      OFFSET -9.412 3.9771 -0.7758
      CHANNELS 3 Zrotation Xrotation Yrotation
      JOINT RightKnee
      {
        OFFSET -0.7531 -40.938 0
        CHANNELS 3 Zrotation Xrotation Yrotation
        JOINT RightAnkle
        {
          OFFSET 0 -40.1986 0
          CHANNELS 3 Zrotation Xrotation Yrotation
          JOINT RightToe
          {
            OFFSET 0 -4.4182 9.239
            CHANNELS 3 Zrotation Xrotation Yrotation
            End Site
            {
              OFFSET 0 0 6.1981
            }
          }
        }
      }
    }
    JOINT LeftHip
    {
      OFFSET 9.4119 3.9773 -0.7758
      CHANNELS 3 Zrotation Xrotation Yrotation
      JOINT LeftKnee
      {
        OFFSET 0.7532 -40.9383 0
        CHANNELS 3 Zrotation Xrotation Yrotation
        JOINT LeftAnkle
        {
          OFFSET 0 -40.1986 0
          CHANNELS 3 Zrotation Xrotation Yrotation
          JOINT LeftToe
          {
            OFFSET 0 -4.4182 9.239
            CHANNELS 3 Zrotation Xrotation Yrotation
            End Site
            {
              OFFSET 0 0 6.1981
            }
          }
        }
      }
    }
  }
}
MOTION
Frames:	8
Frame Time:	0.0333333
-26.1898 -0.123055 48.1866 0 0 -0 0.661684 -39.2708 16.2802 1.49625 -5.19456 -0.465563 2.96833 -10.3994 -0.799093 2.96835 -10.3995 -0.799094 0.309916 -1.51334 -1.94384 31.1471 1.67843 9.37427 12.79 -1.5996 -29.2437 54.7492 -36.4918 33.9208 152.469 -60.0152 -141.242 -40.0867 4.7488 -51.4102 -3.03463 13.5333 -2.18207 -35.3166 20.4569 4.66738 -36.3891 20.9688 4.9961 -1.00374 1.77405 1.17368 -42.7843 24.7473 5.54533 -8.91301 5.62895 -0.442031 -6.58208 6.72807 5.06496 -13.8829 9.68215 -0.672766 -15.2678 10.6419 -0.610126 13.8074 -0.97612 8.79343 -17.7367 12.2754 -1.06081 -8.75052 6.03045 -1.00068 -11.5753 -16.7455 -49.4478 -4.53233 0.274118 0.313224 8.53292 10.6974 -3.07896 -26.0807 0.334107 -3.30891 -75.7634 -79.4762 -57.794 19.9219 -57.2361 12.0172 -21.1643 -58.3192 -9.10779 20.8132 17.2476 -1.64443 39.2535 11.9924 -4.93904 40.0953 12.1957 -5.1281 5.73486 3.01957 -1.23916 51.4242 15.4174 -6.16867 14.4546 4.9009 -0.27605 12.0241 6.76839 -5.49468 20.2297 7.81133 -0.243674 21.8147 8.40371 -0.381272 -13.6359 2.82537 -6.8671 21.0307 7.98406 0.323806 10.7776 4.08511 0.534255 14.9861 -7.14837 53.2653 1.89438 -0.271153 -1.98365 -14.8774 25.955 12.1762 8.41119 30.8026 -1.71958 0.496176 0.00175493 3.7645 11.383 2.99453 -17.3488 7.02342 -2.63101 -0.672699 13.5525 16.6204 5.85564 0.369177 3.92796 0.0274908 -3.52623 13.5365 -6.16425 1.18488 2.71679 -0.102133 
-25.8925 -0.104713 48.262 0 0 -0 0.734692 -39.5996 16.402 1.58283 -5.28196 -0.521317 3.13728 -10.5762 -0.901005 3.13729 -10.5762 -0.901002 0.297297 -1.19198 -1.52675 30.6554 1.73591 9.35387 13.1141 -1.57957 -29.0132 52.2402 -37.2864 32.4162 151.433 -59.4086 -142.017 -40.3023 6.44503 -51.9778 -3.03466 13.5333 -2.18202 -35.3166 20.4569 4.66739 -36.3891 20.9688 4.99605 -1.00373 1.77409 1.17354 -42.7843 24.7473 5.54536 -8.913 5.62901 -0.442044 -6.58209 6.72807 5.06497 -13.8829 9.68215 -0.672773 -15.2678 10.6419 -0.61006 13.8074 -0.976096 8.79353 -17.7367 12.2753 -1.06082 -8.7505 6.0305 -1.00062 -11.5753 -16.7454 -49.4478 -4.53232 0.274141 0.31329 8.53291 10.6974 -3.07895 -26.1971 0.317852 -2.89519 -74.1654 -79.0185 -56.4825 20.7642 -57.6231 11.7573 -14.4966 -57.8955 -3.37289 20.8132 17.2477 -1.64442 39.2535 11.9924 -4.93902 40.0953 12.1958 -5.12804 5.73486 3.0196 -1.23916 51.4242 15.4174 -6.16864 14.4546 4.90093 -0.276197 12.0241 6.7684 -5.49468 20.2297 7.81131 -0.243667 21.8147 8.40372 -0.381429 -13.6359 2.82537 -6.8671 21.0307 7.98405 0.323886 10.7777 4.08504 0.534355 14.9861 -7.14835 53.2653 1.89438 -0.27117 -1.98366 -14.8775 25.955 12.1762 8.20307 31.2329 -1.47506 0.657051 0.00156269 3.63859 11.3832 2.98596 -17.3832 6.97047 -1.99704 -0.745314 13.2224 17.7281 4.30783 0.349451 4.79896 0.0231452 -3.58375 13.96 -5.90807 1.0184 3.77989 -0.120951 
-25.4701 -0.111038 48.4444 0 0 -0 1.06775 -40.0419 16.4606 1.64582 -5.35264 -0.558657 3.26044 -10.7189 -0.968278 3.26045 -10.7189 -0.968286 0.293979 -0.801032 -0.982002 30.3816 1.68168 9.50642 13.5911 -1.54521 -28.6188 49.4802 -37.9601 31.0215 150.852 -58.9545 -142.589 -40.5886 7.82943 -52.3234 -3.03461 13.5333 -2.18218 -35.3166 20.4569 4.6674 -36.3891 20.9688 4.99607 -1.00371 1.77408 1.17356 -42.7843 24.7473 5.54542 -8.91302 5.62897 -0.442052 -6.58211 6.72807 5.065 -13.8829 9.68214 -0.672783 -15.2679 10.6419 -0.610169 13.8074 -0.976131 8.79328 -17.7367 12.2754 -1.0608 -8.75053 6.03041 -1.00074 -11.5753 -16.7455 -49.4478 -4.53231 0.274129 0.313169 8.53292 10.6974 -3.07891 -26.2706 0.299835 -2.41778 -72.2757 -78.7623 -54.9294 21.4952 -57.8944 11.4916 -8.35495 -57.2048 1.87244 20.8131 17.2477 -1.64434 39.2535 11.9924 -4.93902 40.0953 12.1957 -5.12814 5.73484 3.01959 -1.23916 51.4242 15.4174 -6.16866 14.4546 4.90089 -0.276183 12.0241 6.76839 -5.49466 20.2297 7.81131 -0.243683 21.8147 8.40367 -0.381392 -13.6359 2.82535 -6.86706 21.0306 7.98407 0.323738 10.7776 4.08518 0.53415 14.9861 -7.14841 53.2652 1.89436 -0.271167 -1.98366 -14.8775 25.9549 12.1763 7.62866 31.0897 -1.27993 0.828254 1.75156 3.53176 11.066 2.39703 -16.8178 6.89187 -1.55699 -0.781198 12.7055 19.0587 3.70339 0.342761 4.8013 0.0599868 -2.8388 13.6066 -6.34115 0.953549 4.08033 -0.124228 
-24.9643 -0.102707 48.6769 0 0 -0 1.60001 -40.4114 16.4203 1.70907 -5.41173 -0.53671 3.38982 -10.837 -0.916376 3.38983 -10.837 -0.916375 0.2881 -0.564958 -0.560607 29.9518 1.60109 9.65282 13.9066 -1.53677 -28.517 47.2277 -38.0316 29.6367 150.198 -58.264 -142.872 -40.5991 9.07514 -52.9988 -3.03462 13.5333 -2.18217 -35.3167 20.4569 4.66741 -36.3891 20.9688 4.99611 -1.00373 1.77408 1.17358 -42.7843 24.7473 5.54529 -8.91302 5.62901 -0.442043 -6.58214 6.72805 5.06507 -13.8829 9.68214 -0.672778 -15.2679 10.6419 -0.610165 13.8074 -0.97612 8.79331 -17.7367 12.2754 -1.06081 -8.75055 6.0304 -1.00073 -11.5753 -16.7455 -49.4478 -4.5323 0.274133 0.31317 8.53291 10.6974 -3.07888 -26.0746 0.289596 -2.05472 -70.4497 -78.8684 -53.4425 22.0326 -58.0292 11.2185 -2.31322 -56.2754 6.9564 20.8132 17.2476 -1.64446 39.2535 11.9924 -4.93904 40.0953 12.1957 -5.12815 5.73485 3.01959 -1.23915 51.4242 15.4174 -6.16867 14.4546 4.90092 -0.276186 12.0241 6.7684 -5.49465 20.2297 7.81131 -0.243679 21.8148 8.4037 -0.381558 -13.6359 2.82534 -6.86699 21.0307 7.98408 0.323763 10.7776 4.08517 0.534167 14.9861 -7.1484 53.2652 1.89437 -0.271166 -1.98364 -14.8774 25.9551 12.1761 6.73418 30.6235 -0.240326 1.00174 4.18775 3.42198 10.5579 1.35782 -16.7902 6.85023 -0.865125 -0.860757 11.9181 19.9557 3.94542 0.346687 4.59914 0.0850891 -2.37508 13.331 -5.0351 0.877339 4.4695 -0.128424 
-24.406 -0.0572052 48.8382 0 0 -0 2.30624 -40.8699 16.3176 1.76831 -5.41483 -0.4627 3.51619 -10.8412 -0.761638 3.5162 -10.8412 -0.761641 0.281234 -0.543482 -0.397419 29.407 1.36096 9.83889 14.175 -1.51848 -28.3058 45.1001 -38.2452 28.3119 149.654 -57.6503 -143.139 -40.6246 10.1766 -53.6311 -3.03462 13.5333 -2.18216 -35.3167 20.4569 4.66742 -36.3892 20.9688 4.99614 -1.00373 1.77409 1.17361 -42.7843 24.7473 5.54529 -8.91301 5.62899 -0.442036 -6.58208 6.72808 5.06494 -13.8829 9.68217 -0.672797 -15.2679 10.6419 -0.610171 13.8074 -0.976119 8.79331 -17.7367 12.2754 -1.06076 -8.75055 6.03041 -1.00073 -11.5753 -16.7455 -49.4478 -4.53229 0.274153 0.313183 8.53292 10.6974 -3.07898 -26.038 0.273569 -1.58879 -68.0452 -78.7529 -51.4147 22.5966 -58.6001 10.8569 3.13523 -54.9364 11.6633 20.8132 17.2476 -1.64445 39.2535 11.9924 -4.93904 40.0953 12.1957 -5.12817 5.73485 3.0196 -1.23911 51.4242 15.4174 -6.16865 14.4546 4.90096 -0.276188 12.0241 6.76841 -5.49466 20.2297 7.81132 -0.243635 21.8148 8.40367 -0.381507 -13.6358 2.82537 -6.86713 21.0307 7.98407 0.323767 10.7776 4.08518 0.534172 14.9861 -7.1484 53.2652 1.89434 -0.271196 -1.98365 -14.8774 25.955 12.1762 5.62694 30.2389 1.13881 1.25191 6.5435 3.23382 9.95015 0.344189 -16.9768 6.78208 -0.369564 -0.903558 11.0105 20.7217 3.92564 0.334714 4.9675 0.0806005 -2.40329 13.2819 -3.95464 0.878124 4.28074 -0.123523 
-23.744 -0.0601501 48.9559 0 0 -0 3.27603 -41.4281 15.9536 1.81463 -5.34696 -0.350663 3.62006 -10.7023 -0.533737 3.62006 -10.7023 -0.533745 0.261149 -0.857357 -0.233107 28.7251 1.41277 9.74117 14.5683 -1.46557 -27.7101 43.1168 -38.4508 27.4844 149.88 -57.2366 -142.858 -40.603 10.8828 -54.0019 -3.03461 13.5333 -2.18216 -35.3167 20.4569 4.66746 -36.3892 20.9688 4.99622 -1.00373 1.77406 1.17363 -42.7843 24.7473 5.5453 -8.91302 5.629 -0.442025 -6.58208 6.72807 5.06494 -13.8829 9.68215 -0.672806 -15.2679 10.6419 -0.610145 13.8074 -0.976127 8.79333 -17.7367 12.2754 -1.06072 -8.75056 6.0304 -1.00073 -11.5753 -16.7455 -49.4477 -4.5323 0.274066 0.313177 8.53294 10.6974 -3.07898 -26.1504 0.253426 -1.06073 -65.8189 -78.6664 -49.6169 23.3905 -59.3788 10.4427 7.69905 -53.4458 15.8234 20.8132 17.2476 -1.64445 39.2536 11.9924 -4.93905 40.0953 12.1957 -5.12812 5.73487 3.0196 -1.23907 51.4242 15.4174 -6.16861 14.4546 4.90094 -0.276177 12.0241 6.76841 -5.49464 20.2297 7.81132 -0.243637 21.8149 8.40369 -0.381656 -13.6358 2.82536 -6.86712 21.0307 7.98408 0.323757 10.7776 4.0852 0.534164 14.9861 -7.14841 53.2652 1.89434 -0.271169 -1.98363 -14.8774 25.9551 12.1762 3.91141 29.3658 2.15426 1.66535 10.1354 2.90628 8.48221 -0.331579 -15.9563 6.82147 0.848362 -1.07301 9.73446 21.5462 3.95098 0.320692 5.61837 0.0496229 -3.08421 13.4005 -2.90893 0.804574 4.65605 -0.127028 
-23.1048 -0.13324 49.0759 0 0 -0 4.21496 -41.962 15.8416 1.83129 -5.29266 -0.248969 3.663 -10.5905 -0.329214 3.66301 -10.5906 -0.329209 0.238937 -1.06546 -0.218521 28.1756 1.39235 9.69449 15.077 -1.47081 -27.7498 41.5263 -38.3247 26.735 149.801 -56.5411 -142.582 -40.2636 11.7168 -54.6932 -3.03462 13.5333 -2.18213 -35.3167 20.4569 4.66752 -36.3891 20.9688 4.99607 -1.00375 1.77407 1.17371 -42.7843 24.7473 5.54533 -8.91301 5.62897 -0.442021 -6.58209 6.72807 5.06495 -13.8829 9.68216 -0.672793 -15.2678 10.6419 -0.610133 13.8074 -0.976106 8.79336 -17.7367 12.2754 -1.06061 -8.75052 6.0304 -1.00072 -11.5752 -16.7455 -49.4476 -4.53229 0.274137 0.313178 8.53291 10.6974 -3.07897 -26.2032 0.243983 -0.810148 -64.438 -78.4268 -48.5106 24.6203 -59.9637 10.5507 10.8313 -52.0635 18.663 20.8132 17.2476 -1.64445 39.2535 11.9924 -4.93902 40.0953 12.1957 -5.12813 5.73483 3.01964 -1.23897 51.4242 15.4174 -6.16857 14.4546 4.90094 -0.276162 12.0241 6.76841 -5.49459 20.2297 7.81131 -0.243554 21.8149 8.40366 -0.381637 -13.6358 2.82538 -6.86713 21.0306 7.98407 0.323805 10.7776 4.08517 0.534169 14.9861 -7.1484 53.2652 1.89433 -0.27116 -1.98355 -14.8774 25.955 12.1762 2.39197 28.3852 2.84305 2.13733 13.774 2.49284 6.48838 -1.01886 -14.7675 6.89991 2.28957 -1.28096 8.54629 22.1958 3.88399 0.307006 6.37177 0.0374933 -3.30397 13.4275 -1.91591 0.844953 4.1754 -0.118127 
-22.4545 -0.272903 49.2466 0 0 -0 5.466 -42.5628 16.3155 1.74779 -5.23392 -0.130818 3.50562 -10.4694 -0.101139 3.50563 -10.4694 -0.10114 0.200598 -1.35804 -0.551593 27.8398 1.55691 9.72284 15.9066 -1.50744 -28.1218 39.8535 -38.48 26.0125 149.579 -56.0785 -142.704 -40.0466 12.2947 -55.266 -3.03463 13.5333 -2.18212 -35.3167 20.4569 4.66741 -36.3892 20.9688 4.99608 -1.00374 1.77408 1.17356 -42.7843 24.7473 5.54534 -8.91303 5.62898 -0.442009 -6.58209 6.72808 5.06496 -13.8829 9.68216 -0.672784 -15.2678 10.642 -0.610063 13.8074 -0.976118 8.79343 -17.7367 12.2754 -1.06082 -8.75056 6.03041 -1.00073 -11.5753 -16.7455 -49.4478 -4.53231 0.274115 0.313205 8.53293 10.6974 -3.07897 -26.1924 0.252484 -1.04815 -62.937 -78.0761 -47.1182 25.6645 -60.446 11.0847 12.6223 -50.9002 19.8806 20.8132 17.2476 -1.64441 39.2535 11.9924 -4.939 40.0953 12.1957 -5.12807 5.73485 3.01959 -1.23919 51.4242 15.4174 -6.16867 14.4546 4.90089 -0.276131 12.0241 6.76845 -5.49453 20.2297 7.8113 -0.243467 21.8149 8.40365 -0.381771 -13.6358 2.82536 -6.86712 21.0307 7.98406 0.323876 10.7776 4.08517 0.534176 14.9861 -7.1484 53.2653 1.89429 -0.271191 -1.98347 -14.8774 25.955 12.1762 0.738336 27.2682 2.55344 2.72741 18.0692 1.95081 4.17818 -2.03607 -12.8832 7.09014 4.39181 -1.60883 7.32633 22.916 4.43026 0.291807 7.10363 0.0737056 -2.16302 13.0798 -2.53521 0.881553 3.72687 -0.109629 
